# xmcd CD database file
# Copyright (C) 1993-1998 Ti Kan
#
# Track frame offsets:
#	182
#	12337
#	32730
#	46842
#	59732
#	72905
#	84767
#	96700
#	108852
#	125640
#	145010
#	160507
#	178532
#	190907
#	204767
#	217655
#
# Disc length: 3164 seconds
#
# Revision: 0
# Processed by: cddbd v1.4b41PL1 Copyright (c) Steve Scherf et al.
# Submitted via: CDmax 1.5
#
DISCID=d20c5a10
DTITLE=Louis Jordan - Good Times
DYEAR=1900
DGENRE=
TTITLE0=Let The Good Times Roll
TTITLE1=Knock Me A Kiss
TTITLE2=Five Guys Named Moe
TTITLE3=Buzz Me
TTITLE4=Daddy-O
TTITLE5=On The Sunny Side Of The Street
TTITLE6=All For The Love Of Lil
TTITLE7=Safe, Sane And Single
TTITLE8=Don't Let The Sun Catch You Crying
TTITLE9=Broke But Happy
TTITLE10=How Long Must I Wait For You?
TTITLE11=I Like 'Em Fat Like That
TTITLE12=Sometimes I'm Happy
TTITLE13=Texas And The Pacific (The T.P. Special)
TTITLE14=That's Why We Can't Agree
TTITLE15=The Drippy Drippers
EXTD=
EXTT0=
EXTT1=
EXTT2=
EXTT3=
EXTT4=
EXTT5=
EXTT6=
EXTT7=
EXTT8=
EXTT9=
EXTT10=
EXTT11=
EXTT12=
EXTT13=
EXTT14=
EXTT15=
PLAYORDER=
